<?xml version="1.0" encoding="UTF-8"?>
<!-- Generated by Pixelmator Pro 3.7 -->
<svg width="4343" height="1178" viewBox="0 0 4343 1178" xmlns="http://www.w3.org/2000/svg">
    <g id="Layer-1">
        <path id="DATA-CATALOGUE" fill="#152a3e" fill-rule="evenodd" stroke="none" d="M 4044.983398 1051.260132 C 4038.323486 1050.689209 4032.853027 1048.072998 4028.571777 1043.411133 C 4024.290527 1038.749268 4022.149902 1033.088623 4022.149902 1026.428833 L 4022.149902 710.472595 C 4022.149902 703.432251 4024.575928 697.581299 4029.428223 692.919434 C 4034.280273 688.257629 4040.131104 685.926758 4046.981201 685.926758 L 4254.764648 685.926758 C 4261.614258 685.926758 4267.370117 688.305176 4272.032227 693.062195 C 4276.694336 697.819153 4279.024902 703.622559 4279.024902 710.472595 C 4279.024902 717.322632 4276.694336 723.173584 4272.032227 728.025696 C 4267.370117 732.877808 4261.614258 735.303833 4254.764648 735.303833 L 4071.5271 735.303833 L 4071.5271 839.480957 L 4212.808594 839.480957 C 4216.233398 839.480957 4219.467773 840.146851 4222.512695 841.478821 C 4225.556641 842.810791 4228.220703 844.618408 4230.503906 846.901733 C 4232.787598 849.185059 4234.547852 851.801392 4235.78418 854.750732 C 4237.021484 857.700073 4237.639648 860.887146 4237.639648 864.312134 C 4237.639648 871.162231 4235.26123 876.918091 4230.503906 881.579834 C 4225.74707 886.241699 4219.848633 888.572571 4212.808594 888.572571 L 4071.5271 888.572571 L 4071.5271 1001.882996 L 4254.764648 1001.882996 C 4258.189453 1001.882996 4261.376953 1002.54895 4264.326172 1003.88092 C 4267.275391 1005.212891 4269.84375 1007.020508 4272.032227 1009.303833 C 4274.220703 1011.587158 4275.932617 1014.203491 4277.169922 1017.152832 C 4278.40625 1020.102112 4279.024902 1023.289246 4279.024902 1026.714233 C 4279.024902 1033.754517 4276.694336 1039.653076 4272.032227 1044.410034 C 4267.370117 1049.166992 4261.614258 1051.450317 4254.764648 1051.260132 Z M 3660.5271 893.710083 C 3660.5271 909.503174 3663.666748 924.202026 3669.945801 937.806946 C 3676.225098 951.411865 3684.644775 963.208984 3695.205322 973.198608 C 3705.765625 983.188232 3718.038574 991.084717 3732.023926 996.888184 C 3746.009521 1002.691711 3760.708252 1005.593384 3776.12085 1005.593384 C 3791.533447 1005.593384 3806.041992 1002.691711 3819.646973 996.888184 C 3833.251709 991.084717 3845.048828 983.09314 3855.038574 972.913208 C 3865.028076 962.733276 3872.924561 950.841064 3878.728027 937.236084 C 3884.531738 923.631226 3887.43335 909.027527 3887.43335 893.424683 L 3887.43335 710.187195 C 3887.43335 703.337158 3889.811768 697.581299 3894.568848 692.919434 C 3899.325684 688.257629 3905.12915 685.926758 3911.979248 685.926758 C 3918.829102 685.926758 3924.632568 688.257629 3929.389648 692.919434 C 3934.146484 697.581299 3936.524902 703.337158 3936.524902 710.187195 L 3936.524902 893.710083 C 3936.524902 915.78241 3932.338867 936.617615 3923.966553 956.216309 C 3915.594482 975.815063 3904.130371 992.892334 3889.573975 1007.448608 C 3875.017578 1022.004944 3858.0354 1033.516602 3838.627197 1041.984009 C 3819.21875 1050.451416 3798.383545 1054.685059 3776.12085 1054.685059 C 3753.858154 1054.685059 3732.737549 1050.451416 3712.758301 1041.984009 C 3692.779053 1033.516602 3675.273682 1022.004944 3660.241699 1007.448608 C 3645.209717 992.892334 3633.317383 975.815063 3624.564697 956.216309 C 3615.811768 936.617615 3611.435303 915.78241 3611.435303 893.710083 L 3611.435303 711.043396 C 3611.435303 704.003113 3613.813965 698.104553 3618.570801 693.347595 C 3623.327881 688.590637 3629.131104 686.212158 3635.981201 686.212158 C 3642.831299 686.212158 3648.634766 688.590637 3653.391602 693.347595 C 3658.148682 698.104553 3660.5271 704.003113 3660.5271 711.043396 Z M 3521.814697 738.44342 C 3526.761719 743.200378 3529.235352 748.908691 3529.235352 755.56842 C 3529.235352 762.228149 3526.761719 767.936462 3521.814697 772.69342 C 3517.057617 777.450378 3511.349365 779.92395 3504.689697 780.114258 C 3498.029785 780.304565 3492.226318 777.926086 3487.279053 772.978821 C 3473.579102 759.659302 3458.30957 749.574707 3441.469727 742.72467 C 3424.630127 735.874634 3407.362549 732.449646 3389.666748 732.449646 C 3371.399902 732.449646 3354.037354 735.969788 3337.578125 743.010071 C 3321.118896 750.050415 3306.705566 759.706909 3294.337402 771.979858 C 3281.969482 784.252869 3272.170166 798.713806 3264.939697 815.36322 C 3257.708984 832.012573 3254.09375 849.946106 3254.09375 869.164246 C 3254.09375 887.43103 3257.518799 904.793701 3264.368652 921.252808 C 3271.21875 937.711914 3280.685059 952.172852 3292.767822 964.636108 C 3304.850342 977.099365 3319.121094 987.04126 3335.580322 994.462158 C 3352.039307 1001.883057 3369.782471 1005.593384 3388.810303 1005.593384 C 3405.554932 1005.593384 3421.728516 1003.072266 3437.331299 998.029907 C 3452.934082 992.987488 3467.585449 984.567749 3481.2854 972.770508 L 3481.2854 920.539246 L 3424.772949 920.539246 C 3421.3479 920.539246 3418.160889 919.873291 3415.211426 918.541321 C 3412.262207 917.209351 3409.693359 915.401733 3407.505127 913.118408 C 3405.316895 910.835083 3403.604492 908.21875 3402.367676 905.26947 C 3401.130859 902.320129 3400.512451 899.133057 3400.512451 895.708008 C 3400.512451 889.048218 3402.843262 883.339966 3407.505127 878.583008 C 3412.166992 873.82605 3417.922852 871.447571 3424.772949 871.447571 L 3505.545898 871.447571 C 3512.586182 871.447571 3518.579834 873.730896 3523.5271 878.297607 C 3528.474365 882.864258 3530.947998 888.667725 3530.947998 895.708008 L 3530.947998 983.045532 C 3530.947998 987.231628 3530.186768 990.751709 3528.664551 993.605957 C 3527.142334 996.460083 3525.144531 999.219116 3522.670898 1001.882996 C 3501.93042 1020.530273 3480.191406 1034.039917 3457.453125 1042.412109 C 3434.714844 1050.784424 3411.358398 1054.875366 3387.383301 1054.685059 C 3370.829102 1054.685059 3354.845947 1052.449341 3339.43335 1047.977783 C 3324.020752 1043.506226 3309.559814 1037.274658 3296.050049 1029.282959 C 3282.540283 1021.29126 3270.172363 1011.634766 3258.945801 1000.313232 C 3247.719482 988.991638 3238.110352 976.480957 3230.118652 962.780884 C 3222.126953 949.080811 3215.895508 934.38208 3211.424072 918.684082 C 3206.952393 902.986084 3204.716553 886.574768 3204.716553 869.449707 C 3204.716553 852.514893 3206.857178 836.151123 3211.138428 820.358032 C 3215.419922 804.56488 3221.508545 789.770874 3229.405273 775.975708 C 3237.301758 762.180481 3246.815674 749.574707 3257.946777 738.15802 C 3269.078125 726.741272 3281.493652 716.942078 3295.193848 708.760071 C 3308.893799 700.578125 3323.640137 694.251404 3339.43335 689.779846 C 3355.226563 685.30835 3371.780518 683.072571 3389.095947 683.072571 C 3414.593262 683.072571 3438.4729 687.734314 3460.735352 697.057983 C 3482.998047 706.381653 3503.357666 720.176636 3521.814697 738.44342 Z M 2961.541504 683.072571 C 2978.666748 683.072571 2995.125488 685.30835 3010.918701 689.779846 C 3026.711914 694.251404 3041.505859 700.482971 3055.301025 708.47467 C 3069.096191 716.46637 3081.654297 726.170471 3092.976074 737.587158 C 3104.297607 749.003906 3114.001709 761.562073 3122.088379 775.262207 C 3130.175293 788.96228 3136.45459 803.756226 3140.926025 819.64447 C 3145.397461 835.532715 3147.633301 852.039185 3147.633301 869.164246 C 3147.633301 894.851868 3142.733887 918.921753 3132.934326 941.374634 C 3123.13501 963.827515 3109.815674 983.473511 3092.976074 1000.313232 C 3076.13623 1017.152832 3056.442871 1030.424561 3033.894775 1040.128784 C 3011.34668 1049.833008 2987.229248 1054.685059 2961.541504 1054.685059 C 2944.416504 1054.685059 2927.910156 1052.496948 2912.021973 1048.120483 C 2896.133545 1043.744141 2881.3396 1037.512573 2867.639648 1029.425659 C 2853.939453 1021.338867 2841.476563 1011.634766 2830.25 1000.313232 C 2819.023438 988.991638 2809.414551 976.480957 2801.422852 962.780884 C 2793.431152 949.080811 2787.24707 934.334473 2782.87085 918.541321 C 2778.494385 902.748169 2776.306152 886.289307 2776.306152 869.164246 C 2776.306152 852.039185 2778.494385 835.532715 2782.87085 819.64447 C 2787.24707 803.756226 2793.431152 788.96228 2801.422852 775.262207 C 2809.414551 761.562073 2819.023438 749.003906 2830.25 737.587158 C 2841.476563 726.170471 2853.939453 716.46637 2867.639648 708.47467 C 2881.3396 700.482971 2896.085938 694.251404 2911.87915 689.779846 C 2927.672363 685.30835 2944.226318 683.072571 2961.541504 683.072571 Z M 2961.541504 732.449646 C 2942.704102 732.449646 2925.008301 736.017334 2908.454102 743.152771 C 2891.899902 750.288269 2877.486572 760.087463 2865.213379 772.55072 C 2852.94043 785.013977 2843.236328 799.522461 2836.101074 816.076782 C 2828.965576 832.630981 2825.397949 850.32666 2825.397949 869.164246 C 2825.397949 888.192139 2828.965576 905.98291 2836.101074 922.53717 C 2843.236328 939.091431 2852.94043 953.504822 2865.213379 965.777832 C 2877.486572 978.050781 2891.899902 987.754883 2908.454102 994.890259 C 2925.008301 1002.025757 2942.704102 1005.593384 2961.541504 1005.593384 C 2980.379395 1005.593384 2998.122559 1002.025757 3014.771973 994.890259 C 3031.421387 987.754883 3045.929688 978.050781 3058.297852 965.777832 C 3070.666016 953.504822 3080.417725 939.091431 3087.553223 922.53717 C 3094.688477 905.98291 3098.256348 888.192139 3098.256348 869.164246 C 3098.256348 850.32666 3094.688477 832.630981 3087.553223 816.076782 C 3080.417725 799.522461 3070.666016 785.013977 3058.297852 772.55072 C 3045.929688 760.087463 3031.421387 750.288269 3014.771973 743.152771 C 2998.122559 736.017334 2980.379395 732.449646 2961.541504 732.449646 Z M 2564.5271 1001.882996 L 2738.631348 1002.168457 C 2742.056152 1002.168457 2745.243408 1002.834351 2748.192871 1004.166321 C 2751.14209 1005.498291 2753.710693 1007.258301 2755.898926 1009.446533 C 2758.087158 1011.634766 2759.799805 1014.203491 2761.036621 1017.152832 C 2762.273438 1020.102112 2762.891602 1023.289246 2762.891602 1026.714233 C 2762.891602 1030.139282 2762.273438 1033.374023 2761.036621 1036.418457 C 2759.799805 1039.462891 2758.087158 1042.079224 2755.898926 1044.267334 C 2753.710693 1046.455566 2751.14209 1048.168091 2748.192871 1049.404907 C 2745.243408 1050.641724 2742.056152 1051.260132 2738.631348 1051.260132 L 2536.556152 1051.260132 C 2530.467285 1050.499023 2525.377441 1047.88269 2521.286621 1043.411133 C 2517.195313 1038.939575 2515.149902 1033.469116 2515.149902 1026.999634 L 2515.149902 710.472595 C 2515.149902 707.047546 2515.815918 703.812866 2517.147949 700.768433 C 2518.47998 697.723938 2520.239746 695.107666 2522.428223 692.919434 C 2524.616211 690.731262 2527.185059 689.018799 2530.134277 687.781982 C 2533.08374 686.545166 2536.270996 685.926758 2539.695801 685.926758 C 2546.545898 685.926758 2552.396973 688.257629 2557.249023 692.919434 C 2562.101074 697.581299 2564.5271 703.432251 2564.5271 710.472595 Z M 1495.927124 738.44342 C 1500.874268 743.200378 1503.3479 748.861084 1503.3479 755.42572 C 1503.3479 761.990356 1500.874268 767.746155 1495.927124 772.69342 C 1493.643799 774.976807 1490.979858 776.736816 1487.935425 777.973633 C 1484.890991 779.210449 1481.79895 779.828857 1478.659424 779.828857 C 1475.519775 779.828857 1472.427734 779.257996 1469.383301 778.116333 C 1466.338867 776.97467 1463.675049 775.262207 1461.391602 772.978821 C 1447.69165 759.278748 1432.51709 749.098999 1415.867676 742.43927 C 1399.218262 735.77948 1381.950806 732.449646 1364.064575 732.449646 C 1345.417236 732.449646 1327.864258 736.017334 1311.405273 743.152771 C 1294.946045 750.288269 1280.532715 759.99231 1268.164551 772.265259 C 1255.796509 784.538269 1246.0448 798.95166 1238.909424 815.50592 C 1231.773926 832.060181 1228.206299 849.850952 1228.206299 868.878845 C 1228.206299 887.14563 1231.631226 904.508301 1238.481201 920.967407 C 1245.331299 937.426514 1254.797485 951.935059 1266.880249 964.493408 C 1278.962891 977.051819 1293.233643 987.04126 1309.692749 994.462158 C 1326.151855 1001.883057 1343.990234 1005.593384 1363.208374 1005.593384 C 1381.28479 1005.783691 1398.504761 1002.691711 1414.868774 996.317383 C 1431.232666 989.943054 1446.454834 979.810852 1460.5354 965.920532 C 1462.818726 963.637146 1465.482666 961.924683 1468.5271 960.782959 C 1471.571533 959.641357 1474.663574 959.070496 1477.803101 959.070496 C 1480.942749 959.070496 1484.034668 959.59375 1487.079102 960.640259 C 1490.123657 961.686829 1492.787476 963.351746 1495.070801 965.635071 C 1497.544434 967.918457 1499.399658 970.629883 1500.636475 973.76947 C 1501.873291 976.909058 1502.491699 980.048584 1502.491699 983.188232 C 1502.491699 986.32782 1501.873291 989.372192 1500.636475 992.321533 C 1499.399658 995.270874 1497.639648 997.887146 1495.356201 1000.170532 C 1476.89917 1018.81781 1456.30188 1032.612793 1433.563477 1041.555908 C 1410.825195 1050.499023 1387.373779 1054.970459 1363.208374 1054.970459 C 1337.710938 1054.970459 1313.783813 1050.118408 1291.426025 1040.414307 C 1269.068237 1030.710083 1249.565063 1017.438293 1232.915649 1000.598633 C 1216.266235 983.758972 1203.0896 964.06543 1193.385376 941.517334 C 1183.681152 918.96936 1178.829224 894.947021 1178.829224 869.449707 C 1178.829224 853.085693 1180.922241 837.150085 1185.108276 821.642334 C 1189.294434 806.134644 1195.240601 791.483398 1202.946899 777.688232 C 1210.653198 763.893005 1220.024292 751.192078 1231.060425 739.585083 C 1242.096558 727.978088 1254.512085 717.988586 1268.307251 709.616333 C 1282.102539 701.24408 1297.039185 694.727112 1313.117676 690.065308 C 1329.196289 685.403442 1346.27356 683.072571 1364.349976 683.072571 C 1388.325073 683.072571 1411.633911 687.686768 1434.2771 696.915283 C 1456.920288 706.143799 1477.469971 719.986389 1495.927124 738.44342 Z M 1199.949951 219.927124 C 1199.949951 213.077026 1202.375977 207.321167 1207.228149 202.659424 C 1212.0802 197.997559 1217.83606 195.666626 1224.49585 195.666626 L 1326.960449 195.666626 C 1343.704956 195.666626 1359.926025 197.854858 1375.624023 202.231201 C 1391.322021 206.607666 1406.020752 212.791626 1419.720825 220.783325 C 1433.420898 228.775024 1445.931519 238.383911 1457.253174 249.610474 C 1468.574707 260.836853 1478.278809 273.25238 1486.365601 286.8573 C 1494.452515 300.462219 1500.731567 315.065918 1505.203125 330.668762 C 1509.674683 346.271606 1511.9104 362.445068 1511.9104 379.189575 C 1511.9104 395.934082 1509.674683 412.059998 1505.203125 427.567688 C 1500.731567 443.075439 1494.452515 457.536377 1486.365601 470.95105 C 1478.278809 484.365662 1468.574707 496.638489 1457.253174 507.769775 C 1445.931519 518.901123 1433.420898 528.414917 1419.720825 536.311462 C 1406.020752 544.208008 1391.322021 550.296875 1375.624023 554.578125 C 1359.926025 558.859375 1343.704956 561 1326.960449 561 L 1224.49585 561 C 1217.83606 561 1212.0802 558.669128 1207.228149 554.007263 C 1202.375977 549.345459 1199.949951 543.5896 1199.949951 536.739563 Z M 1249.327026 245.043701 L 1249.327026 511.622925 L 1327.81665 511.622925 C 1346.844482 511.622925 1364.587769 507.960083 1381.046875 500.634399 C 1397.505981 493.308655 1411.776611 483.557007 1423.859375 471.37915 C 1435.942139 459.201355 1445.408325 445.120911 1452.258301 429.137512 C 1459.108398 413.154114 1462.533325 396.600098 1462.533325 379.474976 C 1462.533325 362.159607 1459.108398 345.415344 1452.258301 329.241638 C 1445.408325 313.067993 1435.942139 298.749695 1423.859375 286.286438 C 1411.776611 273.823181 1397.505981 263.83374 1381.046875 256.317688 C 1364.587769 248.801758 1346.844482 245.043701 1327.81665 245.043701 Z M 1621.224976 973.91217 L 1797.041748 973.91217 L 1823.585449 1036.418457 C 1826.439575 1042.887939 1831.101318 1047.311768 1837.570801 1049.690308 C 1844.040283 1052.068726 1850.414551 1051.830933 1856.693726 1048.976807 C 1863.163208 1046.312866 1867.301758 1041.841309 1869.109375 1035.562134 C 1870.916992 1029.282959 1870.488892 1023.003906 1867.824951 1016.72467 L 1731.110352 700.768433 C 1729.017334 696.011475 1726.020508 692.348633 1722.119873 689.779846 C 1718.218994 687.211121 1713.795166 685.926758 1708.8479 685.926758 C 1698.192383 685.926758 1690.676392 690.969055 1686.300049 701.053833 L 1550.15625 1016.72467 C 1547.302002 1023.194153 1546.874023 1029.520752 1548.871826 1035.704834 C 1550.869873 1041.888916 1555.198608 1046.312866 1561.858398 1048.976807 C 1565.093018 1050.499023 1568.375366 1051.307617 1571.7052 1051.402832 C 1575.035156 1051.497925 1578.174683 1050.974609 1581.124023 1049.833008 C 1584.073242 1048.691284 1586.784668 1046.978882 1589.258301 1044.695557 C 1591.731934 1042.412109 1593.634766 1039.653198 1594.966675 1036.418457 L 1621.224976 973.91217 Z M 2379.291504 973.91217 L 2203.475098 973.91217 L 2177.216797 1036.418457 C 2175.884766 1039.653198 2173.981934 1042.412109 2171.508301 1044.695557 C 2169.034668 1046.978882 2166.323242 1048.691284 2163.374023 1049.833008 C 2160.424561 1050.974609 2157.285156 1051.497925 2153.955078 1051.402832 C 2150.625244 1051.307617 2147.343018 1050.499023 2144.108398 1048.976807 C 2137.448486 1046.312866 2133.119873 1041.888916 2131.121826 1035.704834 C 2129.124023 1029.520752 2129.552002 1023.194153 2132.40625 1016.72467 L 2268.550049 701.053833 C 2272.92627 690.969055 2280.442383 685.926758 2291.0979 685.926758 C 2296.045166 685.926758 2300.469238 687.211121 2304.369629 689.779846 C 2308.270508 692.348633 2311.267334 696.011475 2313.360352 700.768433 L 2450.074951 1016.72467 C 2452.73877 1023.003906 2453.166992 1029.282959 2451.359375 1035.562134 C 2449.551758 1041.841309 2445.413086 1046.312866 2438.943848 1048.976807 C 2432.664551 1051.830933 2426.290283 1052.068726 2419.820801 1049.690308 C 2413.351318 1047.311768 2408.689453 1042.887939 2405.835449 1036.418457 L 2379.291504 973.91217 Z M 2023.947998 735.303833 L 2023.947998 1026.999634 C 2023.947998 1030.424683 2023.32959 1033.611816 2022.092773 1036.561157 C 2020.855957 1039.510498 2019.095825 1042.079224 2016.8125 1044.267334 C 2014.529175 1046.455566 2011.865234 1048.168091 2008.820801 1049.404907 C 2005.776367 1050.641724 2002.541748 1051.260132 1999.116699 1051.260132 C 1992.266602 1051.260132 1986.510742 1048.881592 1981.848877 1044.124634 C 1977.187134 1039.367676 1974.856201 1033.659424 1974.856201 1026.999634 L 1974.856201 735.303833 L 1878.670898 735.303833 C 1875.24585 735.303833 1872.058716 734.637878 1869.109375 733.305908 C 1866.160034 731.973938 1863.543701 730.166321 1861.260498 727.882996 C 1858.977051 725.59967 1857.217041 722.983337 1855.980225 720.034058 C 1854.743408 717.084717 1854.125 713.897583 1854.125 710.472595 C 1854.125 703.622559 1856.503418 697.819153 1861.260498 693.062195 C 1866.017334 688.305176 1871.820801 685.926758 1878.670898 685.926758 L 2120.133301 685.926758 C 2126.983398 685.926758 2132.786865 688.352783 2137.543701 693.204895 C 2142.300781 698.057007 2144.679199 703.907959 2144.679199 710.757996 C 2144.679199 717.608032 2142.300781 723.411438 2137.543701 728.168396 C 2132.786865 732.925415 2126.983398 735.303833 2120.133301 735.303833 L 2023.947998 735.303833 Z M 1776.491699 924.820496 L 1641.204102 924.820496 L 1709.133301 764.701721 L 1776.491699 924.820496 Z M 2223.454102 924.820496 L 2358.741699 924.820496 L 2291.383301 764.701721 L 2223.454102 924.820496 Z M 1620.939575 483.6521 L 1796.756226 483.6521 L 1823.300049 546.158325 C 1826.154175 552.627808 1830.815918 557.051697 1837.2854 559.430237 C 1843.754883 561.808716 1850.12915 561.570862 1856.408325 558.716675 C 1862.877808 556.052734 1867.016357 551.581299 1868.823975 545.302063 C 1870.631592 539.022888 1870.203491 532.743774 1867.539551 526.4646 L 1730.824951 210.508301 C 1728.731934 205.751343 1725.735107 202.088501 1721.834351 199.519775 C 1717.933594 196.95105 1713.509766 195.666626 1708.5625 195.666626 C 1697.906982 195.666626 1690.390991 200.708984 1686.014648 210.793701 L 1549.87085 526.4646 C 1547.016602 532.934082 1546.588501 539.260742 1548.586426 545.444763 C 1550.584351 551.628845 1554.913086 556.052734 1561.572876 558.716675 C 1564.807617 560.238892 1568.089844 561.047546 1571.4198 561.1427 C 1574.749634 561.237854 1577.88916 560.7146 1580.838501 559.572937 C 1583.787842 558.431274 1586.499268 556.71875 1588.9729 554.435425 C 1591.446533 552.1521 1593.349365 549.393066 1594.681274 546.158325 L 1620.939575 483.6521 Z M 2379.006348 483.6521 L 2203.189453 483.6521 L 2176.931152 546.158325 C 2175.599121 549.393066 2173.696533 552.1521 2171.2229 554.435425 C 2168.749268 556.71875 2166.037842 558.431274 2163.088623 559.572937 C 2160.13916 560.7146 2156.999756 561.237854 2153.669922 561.1427 C 2150.339844 561.047546 2147.057617 560.238892 2143.822998 558.716675 C 2137.163086 556.052734 2132.834473 551.628845 2130.836426 545.444763 C 2128.838623 539.260742 2129.266602 532.934082 2132.12085 526.4646 L 2268.264648 210.793701 C 2272.641113 200.708984 2280.156738 195.666626 2290.8125 195.666626 C 2295.759766 195.666626 2300.183594 196.95105 2304.084473 199.519775 C 2307.985189 202.088501 2310.982015 205.751343 2313.074951 210.508301 L 2449.789551 526.4646 C 2452.453613 532.743774 2452.881592 539.022888 2451.073975 545.302063 C 2449.266357 551.581299 2445.12793 556.052734 2438.658203 558.716675 C 2432.379232 561.570841 2426.004964 561.808695 2419.5354 559.430237 C 2413.065918 557.051697 2408.404297 552.627808 2405.550049 546.158325 L 2379.006348 483.6521 Z M 2023.662476 245.043701 L 2023.662476 536.739563 C 2023.662476 540.164612 2023.044189 543.351746 2021.807373 546.301025 C 2020.570557 549.250366 2018.810425 551.819092 2016.5271 554.007263 C 2014.243652 556.195496 2011.579834 557.907959 2008.5354 559.144775 C 2005.490967 560.381592 2002.256348 561 1998.831299 561 C 1991.981201 561 1986.225342 558.621582 1981.563477 553.864563 C 1976.901733 549.107605 1974.570801 543.399353 1974.570801 536.739563 L 1974.570801 245.043701 L 1878.385498 245.043701 C 1874.960449 245.043701 1871.773193 244.377808 1868.823975 243.045776 C 1865.874593 241.713867 1863.25826 239.90625 1860.974976 237.622925 C 1858.69165 235.3396 1856.931641 232.723267 1855.694824 229.773926 C 1854.458008 226.824585 1853.8396 223.637573 1853.8396 220.212524 C 1853.8396 213.362427 1856.218018 207.559082 1860.974976 202.802124 C 1865.731934 198.045166 1871.5354 195.666626 1878.385498 195.666626 L 2119.8479 195.666626 C 2126.697998 195.666626 2132.501465 198.092651 2137.258301 202.944824 C 2142.015381 207.796875 2144.393799 213.647827 2144.393799 220.497925 C 2144.393799 227.3479 2142.015381 233.151367 2137.258301 237.908325 C 2132.501465 242.665283 2126.697998 245.043701 2119.8479 245.043701 L 2023.662476 245.043701 Z M 1776.206299 434.560425 L 1640.918701 434.560425 L 1708.8479 274.44165 L 1776.206299 434.560425 Z M 2223.168701 434.560425 L 2358.456299 434.560425 L 2291.0979 274.44165 L 2223.168701 434.560425 Z"/>
        <g id="Group">
            <g id="Path">
                <path id="path1" fill="#f6931d" stroke="none" d="M 965.572083 253.867981 C 965.572083 353.832092 772.579041 434.869141 529.370178 434.869141 C 286.161316 434.869141 93.168236 353.832092 93.168236 253.867981 C 93.168236 153.903687 286.161316 81.200073 529.370178 81.200073 C 772.579041 81.200073 965.572083 153.903687 965.572083 253.867981 Z"/>
                <path id="path2" fill="#fefefe" fill-rule="evenodd" stroke="none" d="M 529.370178 434.869141 C 772.579041 434.869141 965.572083 353.832092 965.572083 253.867981 C 965.572083 153.903687 772.579041 81.200073 529.370178 81.200073 C 286.161316 81.200073 93.168236 153.903687 93.168236 253.867981 C 93.168236 353.832092 286.161316 434.869141 529.370178 434.869141 Z M 940.572083 253.867981 C 940.572083 290.009338 901.581482 328.575073 829.062988 358.77652 C 751.264648 391.17688 644.541077 409.869141 529.370178 409.869141 C 414.19931 409.869141 307.475677 391.17688 229.677322 358.77652 C 157.158844 328.575073 118.168236 290.009338 118.168236 253.867981 C 118.168236 218.225052 156.514893 181.664612 229.149048 153.338959 C 306.197266 123.291939 412.883575 106.200073 529.370178 106.200073 C 645.85675 106.200073 752.543091 123.291939 829.591309 153.338959 C 902.225464 181.664612 940.572083 218.225052 940.572083 253.867981 Z"/>
            </g>
        </g>
        <g id="g1">
            <g id="g2">
                <path id="path3" fill="none" stroke="#083451" stroke-width="33.333332" stroke-linecap="round" d="M 983.829224 914.375427 C 983.829224 1020.804199 780.360901 1107.081787 529.370056 1107.081787 C 278.379181 1107.081787 74.910904 1020.804199 74.910904 914.375427"/>
                <path id="path4" fill="none" stroke="#083451" stroke-width="33.333332" stroke-linecap="round" d="M 979.217712 722.886902 C 947.687683 816.26178 758.296021 888.036621 529.370056 888.036621 C 374.333099 888.036621 237.428513 855.117188 155.410355 804.86322"/>
                <path id="path5" fill="none" stroke="#083451" stroke-width="33.333332" stroke-linecap="round" d="M 983.829224 695.3302 C 983.829224 704.686462 982.256714 713.887024 979.217712 722.886902"/>
                <path id="path6" fill="none" stroke="#083451" stroke-width="33.333332" stroke-linecap="round" d="M 155.410355 804.86322 C 104.648499 773.76062 74.910904 736.017944 74.910904 695.3302"/>
                <path id="path7" fill="none" stroke="#083451" stroke-width="33.333332" stroke-linecap="round" d="M 983.829224 476.285034 C 983.829224 516.195801 955.216492 553.272766 906.214722 584.028992"/>
                <path id="path8" fill="none" stroke="#083451" stroke-width="33.333332" stroke-linecap="round" d="M 893.257874 591.746521 C 810.363586 638.645142 678.224304 668.991333 529.370056 668.991333 C 278.379181 668.991333 74.910904 582.713806 74.910904 476.285034"/>
                <path id="path9" fill="none" stroke="#083451" stroke-width="33.333332" stroke-linecap="round" d="M 906.214722 584.028992 C 902.041931 586.648071 897.721313 589.221313 893.257874 591.746521"/>
                <path id="path10" fill="none" stroke="#083451" stroke-width="33.333332" stroke-linecap="round" d="M 906.214722 364.983765 C 824.545166 416.244019 686.23938 449.946228 529.370056 449.946228 C 372.500916 449.946228 234.195206 416.244019 152.525558 364.983887"/>
                <path id="path11" fill="none" stroke="#083451" stroke-width="33.333332" stroke-linecap="round" d="M 444.91806 67.85437 C 472.282471 65.67395 500.512146 64.533325 529.370056 64.533325 C 780.360901 64.533325 983.829224 150.810913 983.829224 257.239807 C 983.829224 297.150513 955.216492 334.2276 906.214722 364.983765"/>
                <path id="path12" fill="none" stroke="#083451" stroke-width="33.333332" stroke-linecap="round" d="M 152.525558 364.983887 C 103.523735 334.227722 74.910904 297.150696 74.910904 257.239807 C 74.910904 245.607239 77.34156 234.215393 81.999374 223.150635"/>
                <path id="path13" fill="none" stroke="#083451" stroke-width="33.333332" stroke-linecap="round" d="M 983.595032 283.585876 L 983.829224 476.285034"/>
                <path id="path14" fill="none" stroke="#083451" stroke-width="33.333332" stroke-linecap="round" d="M 983.829224 257.239807 L 983.595032 283.585876"/>
                <path id="path15" fill="none" stroke="#083451" stroke-width="33.333332" stroke-linecap="round" d="M 983.829224 695.3302 L 983.829224 927.874634"/>
                <path id="path16" fill="none" stroke="#083451" stroke-width="33.333332" stroke-linecap="round" d="M 74.910904 476.285034 L 74.910904 695.3302"/>
            </g>
        </g>
        <g id="g3">
            <path id="path17" fill="none" stroke="#083451" stroke-width="33.333332" stroke-linecap="round" d="M 983.829224 914.375427 C 983.829224 1020.804199 780.360901 1107.081787 529.370056 1107.081787 C 278.379181 1107.081787 74.910904 1020.804199 74.910904 914.375427"/>
            <path id="path18" fill="none" stroke="#083451" stroke-width="33.333332" stroke-linecap="round" d="M 979.217712 722.886902 C 947.687683 816.26178 758.296021 888.036621 529.370056 888.036621 C 374.333099 888.036621 237.428513 855.117188 155.410355 804.86322"/>
            <path id="path19" fill="none" stroke="#083451" stroke-width="33.333332" stroke-linecap="round" d="M 983.829224 695.3302 C 983.829224 704.686462 982.256714 713.887024 979.217712 722.886902"/>
            <path id="path20" fill="none" stroke="#083451" stroke-width="33.333332" stroke-linecap="round" d="M 155.410355 804.86322 C 104.648499 773.76062 74.910904 736.017944 74.910904 695.3302"/>
            <path id="path21" fill="none" stroke="#083451" stroke-width="33.333332" stroke-linecap="round" d="M 983.829224 476.285034 C 983.829224 516.195801 955.216492 553.272766 906.214722 584.028992"/>
            <path id="path22" fill="none" stroke="#083451" stroke-width="33.333332" stroke-linecap="round" d="M 893.257874 591.746521 C 810.363586 638.645142 678.224304 668.991333 529.370056 668.991333 C 278.379181 668.991333 74.910904 582.713806 74.910904 476.285034"/>
            <path id="path23" fill="none" stroke="#083451" stroke-width="33.333332" stroke-linecap="round" d="M 906.214722 584.028992 C 902.041931 586.648071 897.721313 589.221313 893.257874 591.746521"/>
            <path id="path24" fill="none" stroke="#083451" stroke-width="33.333332" stroke-linecap="round" d="M 906.214722 364.983765 C 824.545166 416.244019 686.23938 449.946228 529.370056 449.946228 C 372.500916 449.946228 234.195206 416.244019 152.525558 364.983887"/>
            <path id="path25" fill="none" stroke="#083451" stroke-width="33.333332" stroke-linecap="round" d="M 444.91806 67.85437 C 472.282471 65.67395 500.512146 64.533325 529.370056 64.533325 C 780.360901 64.533325 983.829224 150.810913 983.829224 257.239807 C 983.829224 297.150513 955.216492 334.2276 906.214722 364.983765"/>
            <path id="path26" fill="none" stroke="#083451" stroke-width="33.333332" stroke-linecap="round" d="M 152.525558 364.983887 C 103.523735 334.227722 74.910904 297.150696 74.910904 257.239807 C 74.910904 245.607239 77.34156 234.215393 81.999374 223.150635"/>
            <path id="path27" fill="none" stroke="#083451" stroke-width="33.333332" stroke-linecap="round" d="M 983.595032 283.585876 L 983.829224 476.285034"/>
            <path id="path28" fill="none" stroke="#083451" stroke-width="33.333332" stroke-linecap="round" d="M 983.829224 257.239807 L 983.595032 283.585876"/>
            <path id="path29" fill="none" stroke="#083451" stroke-width="33.333332" stroke-linecap="round" d="M 983.829224 695.3302 L 983.829224 927.874634"/>
            <path id="path30" fill="none" stroke="#083451" stroke-width="33.333332" stroke-linecap="round" d="M 74.910904 476.285034 L 74.910904 695.3302"/>
        </g>
    </g>
</svg>
