<?xml version="1.0" encoding="UTF-8"?>
<svg id="Logos" xmlns="http://www.w3.org/2000/svg" baseProfile="tiny" version="1.2" viewBox="0 0 179.22 41.73">

  <g>
    <path d="M46.88,41.06c-.14-.14-.2-.3-.2-.5V1.17c0-.19.07-.36.2-.5s.3-.21.5-.21h6.82c.19,0,.36.07.5.21s.2.3.2.5v32.75c0,.19.1.29.29.29h19.06c.19,0,.36.07.5.2.14.14.2.3.2.5v5.65c0,.19-.07.36-.2.5-.14.14-.3.21-.5.21h-26.87c-.19,0-.36-.07-.5-.21Z" fill="#fff"></path>
    <path d="M85.85,39.95c-2.29-1.19-4.06-2.84-5.3-4.98-1.24-2.14-1.86-4.61-1.86-7.4v-13.46c0-2.8.62-5.27,1.86-7.4,1.24-2.14,3.01-3.79,5.3-4.96C88.14.59,90.81,0,93.84,0s5.62.55,7.9,1.66c2.27,1.1,4.04,2.68,5.3,4.72,1.26,2.04,1.89,4.4,1.89,7.08,0,.35-.23.57-.7.64l-6.82.41h-.11c-.39,0-.58-.21-.58-.64,0-2.06-.63-3.71-1.89-4.95-1.27-1.24-2.92-1.86-4.98-1.86s-3.78.62-5.04,1.86c-1.27,1.24-1.9,2.9-1.9,4.95v14.05c0,2.02.63,3.65,1.9,4.9,1.26,1.24,2.94,1.86,5.04,1.86s3.72-.62,4.98-1.86c1.26-1.24,1.89-2.88,1.89-4.9,0-.43.23-.64.7-.64l6.82.29c.19,0,.36.06.5.18.14.11.2.25.2.41,0,2.68-.63,5.05-1.89,7.11s-3.03,3.65-5.3,4.78c-2.28,1.13-4.91,1.69-7.9,1.69s-5.7-.59-7.99-1.78h0Z" fill="#fff"></path>
    <path d="M120.71,40.25c-2.33-.99-4.13-2.41-5.39-4.26s-1.89-3.99-1.89-6.44v-1.28c0-.19.07-.36.21-.5s.3-.21.5-.21h6.64c.19,0,.36.07.5.21s.21.3.21.5v.87c0,1.56.72,2.87,2.16,3.93,1.43,1.07,3.38,1.6,5.83,1.6,2.06,0,3.59-.44,4.61-1.31,1.01-.87,1.52-1.95,1.52-3.23,0-.93-.31-1.72-.93-2.36-.62-.64-1.47-1.2-2.54-1.69-1.07-.48-2.77-1.16-5.1-2.01-2.61-.89-4.81-1.81-6.62-2.74-1.81-.93-3.32-2.2-4.55-3.82-1.22-1.61-1.83-3.6-1.83-5.97s.6-4.37,1.81-6.12c1.2-1.75,2.88-3.09,5.01-4.02C123,.47,125.47,0,128.27,0,131.22,0,133.86.52,136.17,1.57c2.31,1.05,4.12,2.52,5.42,4.4,1.3,1.89,1.95,4.07,1.95,6.56v.87c0,.19-.07.36-.21.5s-.3.21-.5.21h-6.7c-.19,0-.36-.07-.5-.21s-.21-.3-.21-.5v-.47c0-1.63-.67-3.02-2.01-4.17-1.34-1.14-3.17-1.72-5.51-1.72-1.83,0-3.25.39-4.28,1.17-1.03.78-1.54,1.85-1.54,3.2,0,.97.3,1.79.9,2.45s1.5,1.25,2.68,1.78c1.18.53,3.02,1.23,5.51,2.13,2.76,1.01,4.92,1.9,6.5,2.68s2.99,1.93,4.25,3.47,1.9,3.53,1.9,5.97c0,3.65-1.34,6.54-4.02,8.66-2.68,2.12-6.32,3.18-10.9,3.18-3.11,0-5.83-.5-8.16-1.49h-.03Z" fill="#fff"></path>
    <path d="M173.69,20.34c3.69,1.9,5.54,5.07,5.54,9.5,0,3.77-1.28,6.61-3.85,8.54s-5.93,2.89-10.08,2.89h-15.1c-.19,0-.36-.07-.5-.21s-.21-.3-.21-.5V1.17c0-.19.07-.36.21-.5s.3-.21.5-.21h14.63c9.21,0,13.81,3.73,13.81,11.19,0,3.89-1.65,6.66-4.95,8.33-.23.12-.23.23,0,.35h0ZM157.72,7.81v9.09c0,.19.1.29.29.29h6.82c1.82,0,3.24-.43,4.25-1.28s1.52-2.02,1.52-3.5-.51-2.71-1.52-3.59c-1.01-.87-2.43-1.31-4.25-1.31h-6.82c-.19,0-.29.1-.29.29h0ZM169.49,32.79c1.01-.91,1.52-2.17,1.52-3.76s-.5-2.84-1.52-3.76c-1.01-.91-2.43-1.37-4.25-1.37h-7.23c-.19,0-.29.1-.29.29v9.67c0,.2.1.29.29.29h7.29c1.79,0,3.19-.46,4.19-1.37h0Z" fill="#fff"></path>
  </g>
  <path d="M3.15,2.58h0c1.74,0,3.15,1.41,3.15,3.15h0c0,1.74-1.41,3.15-3.15,3.15h0c-1.74,0-3.15-1.41-3.15-3.15h0c0-1.74,1.41-3.15,3.15-3.15Z" fill="#fff"></path>
  <rect x="11.81" y="1.74" width="7.98" height="7.98" rx="3.99" ry="3.99" fill="#fff"></rect>
  <path d="M3.15,17.72h0c1.74,0,3.15,1.41,3.15,3.15h0c0,1.74-1.41,3.15-3.15,3.15h0c-1.74,0-3.15-1.41-3.15-3.15h0c0-1.74,1.41-3.15,3.15-3.15Z" fill="#fff"></path>
  <path d="M15.8,16.88h0c2.2,0,3.99,1.79,3.99,3.99h0c0,2.2-1.79,3.99-3.99,3.99h0c-2.2,0-3.99-1.79-3.99-3.99h0c0-2.2,1.79-3.99,3.99-3.99Z" fill="#fff"></path>
  <path d="M3.15,32.86h0c1.74,0,3.15,1.41,3.15,3.15h0c0,1.74-1.41,3.15-3.15,3.15h0c-1.74,0-3.15-1.41-3.15-3.15h0c0-1.74,1.41-3.15,3.15-3.15Z" fill="#fff"></path>
  <path d="M15.8,32.02h0c2.2,0,3.99,1.79,3.99,3.99h0c0,2.2-1.79,3.99-3.99,3.99h0c-2.2,0-3.99-1.79-3.99-3.99h0c0-2.2,1.79-3.99,3.99-3.99Z" fill="#fff"></path>
  <path d="M30.56.47h0c2.91,0,5.26,2.35,5.26,5.26h0c0,2.91-2.35,5.26-5.26,5.26h0c-2.91,0-5.26-2.35-5.26-5.26h0c0-2.91,2.35-5.26,5.26-5.26Z" fill="#fff"></path>
  <path d="M30.56,15.61h0c2.91,0,5.26,2.35,5.26,5.26h0c0,2.91-2.35,5.26-5.26,5.26h0c-2.91,0-5.26-2.35-5.26-5.26h0c0-2.91,2.35-5.26,5.26-5.26Z" fill="#fff"></path>
  <path d="M30.56,30.75h0c2.91,0,5.26,2.35,5.26,5.26h0c0,2.91-2.35,5.26-5.26,5.26h0c-2.91,0-5.26-2.35-5.26-5.26h0c0-2.91,2.35-5.26,5.26-5.26Z" fill="#fff"></path>
</svg>