<?xml version="1.0" encoding="UTF-8" standalone="no"?>
<svg viewBox="0 0 143 70.6" version="1.1" id="svg11" width="143" height="70.599998" xmlns="http://www.w3.org/2000/svg">
  <defs id="defs11"></defs>


  <g id="g10">
    <path d="m 7.31,40.21 v 0 C 3.27,40.21 0,36.94 0,32.9 V 14.63 c 0,-2.02 1.64,-3.65 3.65,-3.65 2.01,0 3.65,1.64 3.65,3.65 V 40.2 Z" fill="#1e3446" id="path1"></path>
    <path d="m 79.16,40.21 v 0 c -4.04,0 -7.31,-3.27 -7.31,-7.31 V 14.63 c 0,-2.02 1.64,-3.65 3.65,-3.65 2.01,0 3.65,1.64 3.65,3.65 V 40.2 Z" fill="#1e3446" id="path2"></path>
    <path d="m 34.1,40.21 v 0 c -2.02,0 -3.65,-1.64 -3.65,-3.65 V 10.98 c 4.03,0 7.3,3.27 7.3,7.31 v 18.27 c 0,2.02 -1.64,3.65 -3.65,3.65" fill="#1e3446" id="path3"></path>
    <path d="m 64.55,40.21 v 0 c -2.02,0 -3.65,-1.64 -3.65,-3.65 V 3.66 C 60.89,1.64 62.53,0 64.55,0 66.57,0 68.2,1.64 68.2,3.65 v 32.9 c 0,2.02 -1.64,3.65 -3.65,3.65" fill="#1e3446" id="path4"></path>
    <path d="m 45.06,40.21 v 0 c -2.02,0 -3.65,-1.64 -3.65,-3.65 V 14.63 c 0,-2.02 1.64,-3.65 3.65,-3.65 2.01,0 3.65,1.64 3.65,3.65 v 21.92 c 0,2.02 -1.64,3.65 -3.65,3.65" fill="#1e3446" id="path5"></path>
    <path d="m 54.8,40.21 v 0 c -2.01,0 -3.65,-1.64 -3.65,-3.65 0,-2.01 1.64,-3.65 3.65,-3.65 2.01,0 3.65,1.64 3.65,3.65 0,2.01 -1.64,3.65 -3.65,3.65" fill="#e13c2e" id="path6"></path>
    <path d="m 87.39,39.31 c 0.48,0.51 1,0.88 1.51,0.88 V 14.77 c 0,-2 -1.54,-3.74 -3.54,-3.8 -2.07,-0.06 -3.77,1.6 -3.77,3.65 v 25.57 c 0.63,0 1.24,-0.39 1.77,-0.94 1.12,-1.14 2.93,-1.1 4.03,0.06" fill="#1e3446" id="path7"></path>
    <path d="m 45.06,7.31 v 0 c -2.01,0 -3.65,-1.64 -3.65,-3.65 0,-2.01 1.64,-3.65 3.65,-3.65 2.01,0 3.65,1.64 3.65,3.65 0,2.01 -1.64,3.65 -3.65,3.65" fill="#1e3446" id="path8"></path>
    <path d="m 15.54,39.33 c 0.48,0.51 1,0.88 1.51,0.88 V 14.79 c 0,-2 -1.54,-3.74 -3.54,-3.8 -2.07,-0.06 -3.77,1.6 -3.77,3.65 v 25.57 c 0.63,0 1.24,-0.39 1.77,-0.94 1.12,-1.14 2.93,-1.1 4.03,0.06" fill="#1e3446" id="path9"></path>
    <path d="m 22.22,11.86 c -0.48,-0.51 -1,-0.88 -1.51,-0.88 V 36.4 c 0,2 1.54,3.74 3.54,3.8 2.07,0.06 3.77,-1.6 3.77,-3.65 V 10.98 c -0.63,0 -1.24,0.39 -1.77,0.94 -1.12,1.14 -2.93,1.1 -4.03,-0.06" fill="#1e3446" id="path10"></path>
  </g>

  <text font-family="Barlow, Arial, sans-serif" font-weight="500" font-size="7" fill="#1e3446" letter-spacing="0.02em" id="text11" style="font-size:12px" x="-0.48813558" y="5.9050846"><tspan x="-0.48813558" y="55.405087" id="tspan10" style="font-style:normal;font-variant:normal;font-weight:600;font-stretch:normal;font-size:12px;font-family:Barlow, Arial, sans-serif;-inkscape-font-specification:&#39;Barlow, Arial, sans-serif Semi-Bold&#39;">Metabolomics, Lipidomics</tspan></text>
  <text font-family="Barlow, Arial, sans-serif" font-weight="500" font-size="7" fill="#1e3446" letter-spacing="0.02em" id="text11-9" style="font-size:12px" x="-0.36619437" y="20.297176"><tspan x="-0.36619437" y="69.79718" id="tspan10-0" style="font-style:normal;font-variant:normal;font-weight:600;font-stretch:normal;font-size:12px;font-family:Barlow, Arial, sans-serif;-inkscape-font-specification:&#39;Barlow, Arial, sans-serif Semi-Bold&#39;">and Proteomics Platform</tspan></text>
</svg>